<?xml version="1.0" encoding="utf-8"?>
<!-- Generator: Adobe Illustrator 17.0.1, SVG Export Plug-In . SVG Version: 6.00 Build 0)  -->
<!DOCTYPE svg PUBLIC "-//W3C//DTD SVG 1.1//EN" "http://www.w3.org/Graphics/SVG/1.1/DTD/svg11.dtd">
<svg version="1.1" id="Слой_1" xmlns="http://www.w3.org/2000/svg" xmlns:xlink="http://www.w3.org/1999/xlink" x="0px" y="0px"
	 width="24px" height="24px" viewBox="943.82 536.42 24 24" enable-background="new 943.82 536.42 24 24" xml:space="preserve">
<path d="M955.82,560.42c-6.617,0-12-5.383-12-12s5.383-12,12-12s12,5.383,12,12S962.437,560.42,955.82,560.42z M955.82,538.42
	c-5.514,0-10,4.486-10,10s4.486,10,10,10s10-4.486,10-10S961.334,538.42,955.82,538.42z M955.572,553.08
	c-0.353,0.403-0.96,0.456-1.377,0.12l-5-4c-0.442-0.332-0.531-0.959-0.199-1.4c0.332-0.442,0.959-0.531,1.4-0.199
	c0.017,0.013,0.033,0.026,0.049,0.039l4.252,3.402l6.37-7.28c0.352-0.426,0.982-0.486,1.408-0.134
	c0.426,0.352,0.486,0.982,0.134,1.408c-0.012,0.014-0.024,0.028-0.037,0.042l-7,8V553.08z"/>
</svg>
