<?xml version="1.0" encoding="utf-8"?><svg xmlns="http://www.w3.org/2000/svg" xmlns:xlink="http://www.w3.org/1999/xlink">
    <symbol id="dl-logo_black" viewBox="0 0 65 7"><style>.ast0{fill:#ed1f24}</style>
        <path d="M2.2.7H0v5.6h2.6c1.5 0 2.4-1 2.4-2.9C5 1.2 3.7.7 2.2.7zM2.3 5h-.7V2h.7c.9 0 1 1 1 1.5S3.2 5 2.3 5zm5-1h2.3V2.8H7.3v-.9h2.5V.7H5.6v5.6H10V5.1H7.4L7.3 4zm5.8-1.3c-.7-.1-.9-.2-.9-.5 0-.4.5-.4.6-.4.5 0 1.1.1 1.3.6l1-.9c-.5-.7-1.4-1-2.4-1s-2.3.4-2.3 1.9c0 1 .7 1.5 1.8 1.7.9.2 1.3.3 1.3.6s-.3.4-.8.4-1.2-.2-1.4-.7l-1.2.9c.6.9 1.6 1.2 2.7 1.2 1.2 0 2.4-.6 2.4-2-.1-1.4-1.3-1.7-2.1-1.8zm2.8 3.6h1.7V.7h-1.7v5.6zm5.3-4.5c.5 0 .9.3 1 .8l1.4-.4C23.3 1 22.1.5 21 .5c-1.7 0-2.8 1.4-2.8 3.1 0 2 1.4 2.9 2.5 2.9.7 0 1.2-.3 1.5-.6v.4h1.2V3.2H21v1.1h1c-.1.6-.6.8-1 .8-.7 0-1.3-.4-1.3-1.7.3-.8.6-1.6 1.5-1.6zm7 2.1L26.5.7h-1.7v5.6h1.5V3.1L28 6.3h1.7V.7h-1.5v3.2zM36.3.7h-1.7v5.6h3.6V4.9h-1.9V.7zm4.6 0l-2 5.6h1.7l.2-.8h1.8l.2.8h1.7L42.7.7h-1.8zm.4 3.6l.6-2 .5 2h-1.1zm7.9-.9c.5-.3.8-.7.8-1.3C50 1 49.1.7 48.4.7h-3v5.6h3.2c1.3 0 1.6-.8 1.6-1.6 0-.6-.3-1.1-1-1.3zM47 1.9h1c.3 0 .5.2.5.5 0 .4-.3.5-.5.5h-1v-1zm1 3.2h-1V4h1c.3 0 .6.2.6.6 0 .3-.3.5-.6.5zm11.3-2.6c0-1.4-1-1.8-1.8-1.8h-2.9v5.6h1.6v-2h.5l1 2h1.8L58.2 4c.8-.3 1.1-.8 1.1-1.5zm-2.4.7h-.7V1.9h.7c.3 0 .8.1.8.7 0 .5-.5.6-.8.6zM63.3.7v3.5c0 .6-.3.9-.7.9-.5 0-.7-.3-.7-.8V.7h-1.6v3.5c0 1.6 1.1 2.3 2.3 2.3 1.3 0 2.4-.8 2.4-2.4V.7h-1.7z"/>
        <path class="ast0" d="M31.2 4.3V2.8h2v1.5h-2m20.3 2V4.8h1.7v1.5h-1.7"/>
    </symbol>
    <symbol viewBox="0 0 99.5 37" id="dl-logo_white"><path fill="#FFF" d="M.25 2h6.685c4.255 0 7.818 1.48 7.818 7.391 0 4.925-2.432 7.607-6.854 7.607H.25V2zm6.791 11.478c2.704 0 3.018-2.725 3.018-4.003 0-1.405-.356-3.94-2.892-3.94H5.195v7.943h1.846zm10.784 3.521V2h11.717v3.325H22.52v2.2h6.561v3.208H22.5v2.935h7.672V17l-12.347-.001zM43.443 6.665c-.797-1.193-2.619-1.507-3.878-1.507-.377 0-1.677.063-1.677.964 0 .713.712.923 2.6 1.237 2.494.418 5.994 1.069 5.994 4.569 0 3.815-3.332 5.386-6.854 5.386-3.144 0-5.931-.857-7.671-3.248l3.583-2.305c.713 1.468 2.662 1.948 4.13 1.948 1.404 0 2.221-.397 2.221-1.131 0-.859-.942-1.027-3.605-1.489-3.102-.545-5.094-1.844-5.094-4.464 0-3.961 3.752-5.03 6.477-5.03 2.642 0 5.197.797 6.729 2.621l-2.955 2.449zM48.908 17V2H53.5v15h-4.592zm17.983-9.788c-.254-1.53-1.449-2.2-2.873-2.2-2.684 0-3.498 2.179-3.498 4.233 0 3.353 1.696 4.486 3.625 4.486 1.193 0 2.64-.567 2.787-2.075h-2.748V8.678h6.793v8.197h-3.5v-1.028c-.902.67-2.412 1.426-4.444 1.426-3.082 0-7.274-2.263-7.274-7.692 0-4.36 2.811-8.112 7.883-8.112 2.976 0 6.56 1.445 7.42 4.568l-4.171 1.175zM82.768 17l-4.883-8.614V17h-4.359V2h4.967l4.947 8.46V2h4.379v15h-5.051z"/><path fill="#F00" d="M91.25 12V7h8v5h-8z"/><path fill="#FFF" d="M.25 37V22h4.931v11.082h6.069V37h-11zm24.146 0l-.651-2h-5.163l-.651 2h-5.038l5.667-15h5.332l5.542 15h-5.038zm-3.19-10.782l-1.616 5.226h3.189l-1.573-5.226zM40.234 22c2.225 0 4.786.816 4.786 3.757 0 1.47-.776 2.771-2.308 3.399 1.848.4 2.727 1.783 2.727 3.423 0 2.017-.965 4.421-4.783 4.421H31.25V22h8.984zm-4.093 11.628h2.981c.903 0 1.553-.546 1.553-1.427 0-1.027-.799-1.449-1.658-1.449h-2.875l-.001 2.876zm.022-5.982h2.581c.757 0 1.533-.191 1.533-1.263 0-.881-.653-1.259-1.365-1.259h-2.75l.001 2.522z"/><path fill="#F00" d="M49.25 36.904V32h5v4.904h-5z"/><path fill="#FFF" d="M66.521 22c2.498 0 5.268.984 5.268 4.743 0 1.931-.838 3.253-3.044 4.093L72.378 37H67.13l-2.873-5.408h-1.364V37H58.25V22h8.271zm-1.68 6.548c.987 0 2.269-.147 2.269-1.723 0-1.636-1.365-1.722-2.311-1.722h-1.91v3.443l1.952.002zM79.686 22v9.381c0 1.471.733 2.205 2.035 2.205 1.346 0 2.059-.777 2.059-2.331V22h4.72v8.879c0 4.26-3.021 6.337-6.822 6.337-3.546 0-6.695-1.616-6.695-5.918V22h4.703z"/></symbol></svg>