<svg xmlns="http://www.w3.org/2000/svg" width="28.8" height="26" viewBox="0 0 28.8 26"><path fill="#636466" d="M25 13.5c-.5-.1-1 .3-1.1.9-.7 5.5-5.4 9.6-10.9 9.6-6.1 0-11-4.9-11-11S6.9 2 13 2c1.9 0 3.7.5 5.4 1.4.5.3 1.1.1 1.4-.4.3-.5.1-1.1-.4-1.4C17.4.6 15.2 0 13 0 5.8 0 0 5.8 0 13s5.8 13 13 13c6.5 0 12.1-4.9 12.9-11.4.1-.5-.3-1-.9-1.1z"/><path fill="#9F0E12" d="M12.8 17.9c-.3 0-.5-.1-.7-.3l-6.6-6.5c-.4-.4-.4-1 0-1.4.4-.4 1-.4 1.4 0l5.9 5.9L27.1 1.9c.4-.4 1-.4 1.4 0 .4.4.4 1 0 1.4l-15 14.3c-.2.2-.4.3-.7.3z"/></svg>