<svg xmlns="http://www.w3.org/2000/svg" xmlns:xlink="http://www.w3.org/1999/xlink" viewBox="0 0 65 7">
    <path d="M2.2.7H0v5.6h2.6c1.5 0 2.4-1 2.4-2.9C5 1.2 3.7.7 2.2.7zM2.3 5h-.7V2h.7c.9 0 1 1 1 1.5S3.2 5 2.3 5zm5-1h2.3V2.8H7.3v-.9h2.5V.7H5.6v5.6H10V5.1H7.4L7.3 4zm5.8-1.3c-.7-.1-.9-.2-.9-.5 0-.4.5-.4.6-.4.5 0 1.1.1 1.3.6l1-.9c-.5-.7-1.4-1-2.4-1s-2.3.4-2.3 1.9c0 1 .7 1.5 1.8 1.7.9.2 1.3.3 1.3.6s-.3.4-.8.4-1.2-.2-1.4-.7l-1.2.9c.6.9 1.6 1.2 2.7 1.2 1.2 0 2.4-.6 2.4-2-.1-1.4-1.3-1.7-2.1-1.8zm2.8 3.6h1.7V.7h-1.7v5.6zm5.3-4.5c.5 0 .9.3 1 .8l1.4-.4C23.3 1 22.1.5 21 .5c-1.7 0-2.8 1.4-2.8 3.1 0 2 1.4 2.9 2.5 2.9.7 0 1.2-.3 1.5-.6v.4h1.2V3.2H21v1.1h1c-.1.6-.6.8-1 .8-.7 0-1.3-.4-1.3-1.7.3-.8.6-1.6 1.5-1.6zm7 2.1L26.5.7h-1.7v5.6h1.5V3.1L28 6.3h1.7V.7h-1.5v3.2zM36.3.7h-1.7v5.6h3.6V4.9h-1.9V.7zm4.6 0l-2 5.6h1.7l.2-.8h1.8l.2.8h1.7L42.7.7h-1.8zm.4 3.6l.6-2 .5 2h-1.1zm7.9-.9c.5-.3.8-.7.8-1.3C50 1 49.1.7 48.4.7h-3v5.6h3.2c1.3 0 1.6-.8 1.6-1.6 0-.6-.3-1.1-1-1.3zM47 1.9h1c.3 0 .5.2.5.5 0 .4-.3.5-.5.5h-1v-1zm1 3.2h-1V4h1c.3 0 .6.2.6.6 0 .3-.3.5-.6.5zm11.3-2.6c0-1.4-1-1.8-1.8-1.8h-2.9v5.6h1.6v-2h.5l1 2h1.8L58.2 4c.8-.3 1.1-.8 1.1-1.5zm-2.4.7h-.7V1.9h.7c.3 0 .8.1.8.7 0 .5-.5.6-.8.6zM63.3.7v3.5c0 .6-.3.9-.7.9-.5 0-.7-.3-.7-.8V.7h-1.6v3.5c0 1.6 1.1 2.3 2.3 2.3 1.3 0 2.4-.8 2.4-2.4V.7h-1.7z"/>
    <path class="ast0" d="M31.2 4.3V2.8h2v1.5h-2m20.3 2V4.8h1.7v1.5h-1.7"/>
</svg>