<svg viewBox="0 0 22 24"><defs><style>.cdcls-2{fill:#636466}</style></defs><path d="M20.8 17.944l-.12-.257c-.36-.843-4.755-2.134-5.118-2.156l-.293.025c-.6.122-1.26.69-2.648 1.918-1.562-.722-3.7-2.65-4.708-3.786-1.09-1.228-2.45-3.297-2.94-4.843 1.58-1.4 2.24-2.008 2.28-2.684.023-.366-.73-4.88-1.525-5.34L5.49.67C4.986.344 4.22-.148 3.373.025c-.206.043-.407.124-.592.24C2.21.623.816 1.592.18 2.855c-.392.79-.57 7.982 4.82 14.06 5.325 6.01 11.892 6.27 12.88 6.07l.025-.007.087-.025c1.332-.478 2.462-1.747 2.887-2.27.78-.97.223-2.12-.08-2.74z" id="cdpath-1" class="cdcls-2" fill-rule="evenodd"></path></svg>